<svg xmlns="http://www.w3.org/2000/svg" xmlns:xlink="http://www.w3.org/1999/xlink" xmlns:lucid="lucid" width="840" height="620"><g transform="translate(-440 -280)" lucid:page-tab-id="acWMfEtOV9Ub"><path d="M0 0h1760v1360H0z" fill="#fff"/><path d="M460 466c0-3.3 2.7-6 6-6h308c3.3 0 6 2.7 6 6v88c0 3.3-2.7 6-6 6H466c-3.3 0-6-2.7-6-6z" stroke="#5e5e5e" stroke-width="3" fill="#a3d977"/><use xlink:href="#a" transform="matrix(1,0,0,1,472,472) translate(3.1486666666667418 44.258333333333326)"/><path d="M770 306c0-3.3 2.7-6 6-6h208c3.3 0 6 2.7 6 6v48c0 3.3-2.7 6-6 6H776c-3.3 0-6-2.7-6-6z" stroke="#5e5e5e" stroke-width="3" fill="#ff8f80"/><use xlink:href="#b" transform="matrix(1,0,0,1,782,312) translate(68.17777777777778 24.52777777777778)"/><path d="M940 466c0-3.3 2.7-6 6-6h308c3.3 0 6 2.7 6 6v88c0 3.3-2.7 6-6 6H946c-3.3 0-6-2.7-6-6z" stroke="#5e5e5e" stroke-width="3" fill="#a3d977"/><use xlink:href="#c" transform="matrix(1,0,0,1,952,472) translate(-3.9346666666665726 43.96133333333333)"/><path d="M620 562.5V600" stroke="#5e5e5e" stroke-width="2" fill="none"/><path d="M621 562.53h-2v-1.03h2z" fill="#5e5e5e"/><path d="M620 615.26L615.36 601h9.28z" stroke="#5e5e5e" stroke-width="2" fill="#5e5e5e"/><path d="M540 626c0-3.3 2.7-6 6-6h148c3.3 0 6 2.7 6 6v68c0 3.3-2.7 6-6 6H546c-3.3 0-6-2.7-6-6z" stroke="#5e5e5e" stroke-width="3" fill="#ffc374"/><use xlink:href="#d" transform="matrix(1,0,0,1,552,632) translate(14.6579861111111 35.2734375)"/><path d="M1000 626c0-3.3 2.7-6 6-6h188c3.3 0 6 2.7 6 6v68c0 3.3-2.7 6-6 6h-188c-3.3 0-6-2.7-6-6z" stroke="#5e5e5e" stroke-width="3" fill="#ffc374"/><use xlink:href="#e" transform="matrix(1,0,0,1,1012,632) translate(1.3192274305555287 35.2734375)"/><path d="M1100 562.5V600" stroke="#5e5e5e" stroke-width="2" fill="none"/><path d="M1101 562.53h-2v-1.03h2z" fill="#5e5e5e"/><path d="M1100 615.26l-4.64-14.26h9.28z" stroke="#5e5e5e" stroke-width="2" fill="#5e5e5e"/><path d="M1100 702.5V760" stroke="#5e5e5e" stroke-width="2" fill="none"/><path d="M1101 702.53h-2v-1.03h2z" fill="#5e5e5e"/><path d="M1100 775.26l-4.64-14.26h9.28z" stroke="#5e5e5e" stroke-width="2" fill="#5e5e5e"/><path d="M960 786c0-3.3 2.7-6 6-6h268c3.3 0 6 2.7 6 6v88c0 3.3-2.7 6-6 6H966c-3.3 0-6-2.7-6-6z" stroke="#5e5e5e" stroke-width="3" fill="#e5e5e5"/><use xlink:href="#f" transform="matrix(1,0,0,1,972,792) translate(0 12.796875)"/><use xlink:href="#g" transform="matrix(1,0,0,1,972,792) translate(76.8125 12.796875)"/><use xlink:href="#h" transform="matrix(1,0,0,1,972,792) translate(144.0234375 12.796875)"/><use xlink:href="#i" transform="matrix(1,0,0,1,972,792) translate(192.03125 12.796875)"/><use xlink:href="#j" transform="matrix(1,0,0,1,972,792) translate(36.01 35.01909722222223)"/><use xlink:href="#k" transform="matrix(1,0,0,1,972,792) translate(74.41624999999999 35.01909722222223)"/><use xlink:href="#l" transform="matrix(1,0,0,1,972,792) translate(122.42406249999999 35.01909722222223)"/><use xlink:href="#j" transform="matrix(1,0,0,1,972,792) translate(36.01 51.01909722222223)"/><use xlink:href="#m" transform="matrix(1,0,0,1,972,792) translate(74.41624999999999 51.01909722222223)"/><use xlink:href="#n" transform="matrix(1,0,0,1,972,792) translate(170.431875 51.01909722222223)"/><use xlink:href="#o" transform="matrix(1,0,0,1,972,792) translate(36.01 67.01909722222223)"/><use xlink:href="#p" transform="matrix(1,0,0,1,972,792) translate(55.213125 67.01909722222223)"/><path d="M880.03 362.5l.03.32.06.65.1.65.12.64.15.64.17.64.2.65.26.65.28.66.33.7.36.68.4.7.46.75.53.76.6.77.67.83.78.86.9.9 1.03.98 1.2 1.04 1.4 1.1 1.65 1.2 1.98 1.32 2.4 1.45 2.94 1.6 3.68 1.83 4.72 2.1 6.26 2.47 8.72 3.02 13.26 3.98 25.67 6.5 82.97 19.4 13.26 3.98 8.72 3.02 6.26 2.47 4.72 2.1 3.68 1.82 2.94 1.6 2.4 1.46 1.97 1.3 1.65 1.2 1.3 1.03" stroke="#5e5e5e" stroke-width="2" fill="none"/><path d="M881.02 362.5l-2 .05-.02-1.05h2z" fill="#5e5e5e"/><path d="M1098.4 455.68l-11.04-10.14 8.07-4.56z" stroke="#5e5e5e" stroke-width="2" fill="#5e5e5e"/><path d="M879.96 362.5v.12l-.07.56-.1.55-.1.55-.12.55-.16.55-.18.56-.2.57-.25.6-.3.58-.3.6-.36.62-.4.64-.48.67-.52.7-.6.73-.7.77-.8.8-.9.87-1.08.92-1.25 1-1.48 1.07-1.78 1.18-2.15 1.3-2.66 1.45-3.32 1.64-4.24 1.9-5.58 2.2-7.64 2.64-11.08 3.33-17.9 4.57-43 8.92-83.56 16.53-17.9 4.56-11.08 3.32-7.64 2.65-5.58 2.2-4.24 1.9-3.32 1.63-2.65 1.45-2.14 1.3-1.78 1.18-.8.58" stroke="#5e5e5e" stroke-width="2" fill="none"/><path d="M880.98 362.55l-2-.04.02-1h2z" fill="#5e5e5e"/><path d="M621.74 455.77l3.8-14.5 7.8 5z" stroke="#5e5e5e" stroke-width="2" fill="#5e5e5e"/><defs><path fill="#24292e" d="M44-443c79-191 208-366 448-366 141 0 239 118 267 253 46 222-61 413-213 490-83 42-221 78-338 30-55-23-106-43-129-82-26-14-80-140-57-202 2-41 8-89 22-123zm103 115c1 136 75 191 208 191 130 0 180-50 241-135 38-53 55-111 55-169 0-109-73-236-179-227-143 12-260 151-311 271-9 24-14 47-14 69" id="q"/><path fill="#24292e" d="M68-174c-8-157-1-333-1-488 0-23-21-28-12-60 24-87 141-85 256-77 161 12 317 42 251 258-5 17-40 45-44 60 15 30 85 80 98 123 62 108 25 192-76 258C455-45 341-9 207-4 145-2 19-30 19-85c0-36 51-41 49-89zm137-510c-18 6-26 137-16 192 30 22 66 2 112-6 70-13 158-95 159-132 17-68-169-82-255-54zm-15 330c-15 57-2 155 5 215 6 4 6 12 18 11 101-5 211-32 267-82 52-46 58-91 12-140s-73-73-81-73c-39 14-121 48-173 54-15 2-34 14-48 15" id="r"/><path fill="#24292e" d="M742-672c19-13 30-35 30-67 0-41-39-62-118-62-161 0-276 4-410 26-79 13-122 26-127 95-2 29 32 48 63 46 68-5 152-26 232-25 25 0 43 8 53 24 14 24 44 187 44 247 1 132-5 244-138 237-110-6-195-73-255-135-23-23-47-33-70-33-25 0-44 36-44 66C2-167 240-39 316-18c118 33 253-12 284-102 27-78 38-148 38-271 0-87-29-162-29-256 0-42 93-35 133-25" id="s"/><path fill="#24292e" d="M241-1c89-9 265-42 213 87-19 47-79 30-136 38-61 8-140 8-212 8-58 0-95-35-94-93-2-9 22-38 33-35 70-1 130 2 196-5" id="t"/><path fill="#24292e" d="M330-158c82-22 193-18 286-31 38 11 58 81 24 113-25 24-71 25-116 25-135 0-238 34-358 47C61 7 4-52 15-159c12-113 37-213 32-340-2-59 2-121-2-178-2-44 35-62 81-61 104-31 222-52 345-64 68-7 103 34 111 94 2 12-3 22-9 31-33 14-62 15-103 16-100 2-196 10-270 40h-8c-18 23-11 79-15 106-1 13 5 22 16 25 82-10 176-25 264-12 44 7 78 26 71 72-7 49-76 30-125 30-78 0-138 22-210 29-24 1-35 28-36 52-2 41-10 83-8 126-19 84 122 51 181 35" id="u"/><path fill="#24292e" d="M24-128c0-158-18-313-5-472 6-74-11-192 62-191 78 1 88 68 113 130 59 143 102 191 174 297 50 73 81 109 92 109 8 0 12-3 13-9 24-163 3-322-12-477-6-63 62-76 101-37 65 64 45 212 54 340 10 141 7 304-15 413-8 15-20 23-37 23-76 0-203-132-244-200-33-54-79-109-116-169l4 4c-9-20-41-55-54-51-14 102-5 244 6 344 3 30-15 69-41 68-9 0-28-1-56-3-44-28-39-45-39-119" id="v"/><path fill="#24292e" d="M521-275c40-33 108-24 108 34 0 49-75 103-210 183-80 47-247 72-323 10-66-54-95-101-82-218 12-106 41-136 91-224 55-96 145-209 240-278 32-23 68-33 107-33 86 2 108 61 107 158 0 55-15 82-44 82-55 1-25-116-79-110-132 15-229 223-291 334-48 86-31 226 81 218 122-9 217-92 295-156" id="w"/><path fill="#24292e" d="M19-91c0-222 71-428 58-668-3-62 121-44 170-33 118 27 229 50 293 128 44 53 63 97 63 217 0 165-189 328-383 400-36 13-62 45-108 45-66 0-93-23-93-89zm185-582c-30 151-43 322-58 489 5 39 27 28 60 14 129-54 276-147 276-304 0-155-106-203-278-199" id="x"/><path fill="#24292e" d="M292-638c-67 2-113 14-176 21-81 9-112-68-58-103 132-46 304-52 470-66l65 5c50 52 43 111-50 111-45 0-75 15-112 18-18 16-19 83-24 152-7 108-21 214-33 322-5 46 36 20 67 20 54 0 81-10 139-16 43 25 50 62 23 110-151 29-311 50-490 79C58 24-8 22 3-44c14-83 161-45 224-90 22-16 24-69 29-107 17-126 33-258 36-397" id="y"/><path fill="#24292e" d="M590-683c0-95-64-132-148-103-62 21-113 58-161 92-97 69-165 165-223 275C-45-222 51 11 277-12c154-16 257-81 343-160 63-58 100-126 109-243 12-155-158-93-246-67-61 18-178 69-168 115-2 30 28 68 54 64 69-10 133-52 201-67 9-2 20 9 20 17 0 11-18 38-57 79-85 91-188 136-306 136-55 0-99-68-99-127 0-30 16-69 37-123 25-64 237-288 318-281 25-8 66 40 79 44 19 0 28-19 28-58" id="z"/><path fill="#24292e" d="M3-81C3-44 54-2 90-8c84-15 229-66 336-66 66 0 138-5 200-16 15-7 26-21 25-46 0-56-22-86-66-81l-355 42c-45-14 13-69 26-93 78-144 236-280 334-415 19-26 27-45 27-56-4-55-57-67-130-64-142 6-306 4-411 45-29 11-41 39-41 70 0 43 17 64 50 64 66-16 156-53 230-57 24-1 92-12 93 11 0 9-27 41-80 96C228-469 138-318 58-193 23-137 3-101 3-81" id="A"/><path fill="#24292e" d="M23-677c-68-88 127-122 212-122 113 0 253 24 291 82 92 144-48 310-153 365-52 27-102 48-161 69-56 20-53 15-58 80-4 49-8 103-13 153-3 31-19 46-43 46-44 0-65-28-63-81 5-162 8-330 16-486 3-53-4-75-28-106zm415 73c0-44-44-66-132-66-78 0-124 8-135 26-10 16-14 89-14 218 0 44 22 39 57 25 83-34 224-115 224-203" id="B"/><path fill="#24292e" d="M21-302C-7-136 9 24 196-12c147-28 263-93 386-142 57-23 26-120-26-120-111 32-240 115-378 126-13 1-22-26-25-45 30-174 59-350 88-524 10-62-86-124-120-61-39 73-49 196-69 277-19 77-22 145-31 199" id="C"/><path fill="#24292e" d="M371-533c189 0 256 55 239 237-9 91-67 138-157 205C374-33 301-7 236-7 155-7 13-82 18-160c3-44 62-73 96-38 43 44 152 73 218 29 77-51 166-125 156-169 2-44-67-63-119-62-47 1-108 1-155 3C87-393 13-429 1-531c11-87 101-150 165-187 90-52 160-96 290-87 34 2 118 78 115 115-3 35-23 38-55 45-15 4-26-4-33-24-37-64-116-1-164 12-41 11-154 77-154 113 0 15 14 22 41 22 45 0 127-11 165-11" id="D"/><path fill="#24292e" d="M382-556c-3 158-18 304-18 470 0 31 6 72-21 86-20 35-87 21-104-6-1-188 14-367 23-549 1-24 13-80-17-80-77 0-131 31-210 31-15-10-43-18-33-45 0-82 83-94 148-109 103-23 215-12 315-40 43-12 91-17 142-23 62-8 95 53 77 116-8 28-47 14-75 18-68 9-134 10-195 30-32 11-31 60-32 101" id="E"/><g id="a"><use transform="matrix(0.02266666666666666,0,0,0.02266666666666666,0,0)" xlink:href="#q"/><use transform="matrix(0.02266666666666666,0,0,0.02266666666666666,18.20133333333333,0)" xlink:href="#r"/><use transform="matrix(0.02266666666666666,0,0,0.02266666666666666,32.005333333333326,0)" xlink:href="#s"/><use transform="matrix(0.02266666666666666,0,0,0.02266666666666666,49.77599999999999,0)" xlink:href="#t"/><use transform="matrix(0.02266666666666666,0,0,0.02266666666666666,60.56533333333332,0)" xlink:href="#u"/><use transform="matrix(0.02266666666666666,0,0,0.02266666666666666,75.66133333333332,0)" xlink:href="#v"/><use transform="matrix(0.02266666666666666,0,0,0.02266666666666666,90.19066666666664,0)" xlink:href="#w"/><use transform="matrix(0.02266666666666666,0,0,0.02266666666666666,104.56133333333331,0)" xlink:href="#q"/><use transform="matrix(0.02266666666666666,0,0,0.02266666666666666,122.76266666666663,0)" xlink:href="#x"/><use transform="matrix(0.02266666666666666,0,0,0.02266666666666666,134.9573333333333,0)" xlink:href="#y"/><use transform="matrix(0.02266666666666666,0,0,0.02266666666666666,150.30266666666662,0)" xlink:href="#v"/><use transform="matrix(0.02266666666666666,0,0,0.02266666666666666,164.83199999999997,0)" xlink:href="#z"/><use transform="matrix(0.02266666666666666,0,0,0.02266666666666666,182.05866666666662,0)" xlink:href="#t"/><use transform="matrix(0.02266666666666666,0,0,0.02266666666666666,192.84799999999996,0)" xlink:href="#A"/><use transform="matrix(0.02266666666666666,0,0,0.02266666666666666,207.9893333333333,0)" xlink:href="#y"/><use transform="matrix(0.02266666666666666,0,0,0.02266666666666666,223.37999999999994,0)" xlink:href="#B"/><use transform="matrix(0.02266666666666666,0,0,0.02266666666666666,236.16399999999996,0)" xlink:href="#C"/><use transform="matrix(0.02266666666666666,0,0,0.02266666666666666,247.36133333333322,0)" xlink:href="#y"/><use transform="matrix(0.02266666666666666,0,0,0.02266666666666666,261.23333333333323,0)" xlink:href="#D"/><use transform="matrix(0.02266666666666666,0,0,0.02266666666666666,274.1533333333332,0)" xlink:href="#E"/></g><path fill="#333" d="M3-81C3-44 54-2 90-8c84-15 229-66 336-66 66 0 138-5 200-16 15-7 26-21 25-46 0-56-22-86-66-81l-355 42c-45-14 13-69 26-93 78-144 236-280 334-415 19-26 27-45 27-56-4-55-57-67-130-64-142 6-306 4-411 45-29 11-41 39-41 70 0 43 17 64 50 64 66-16 156-53 230-57 24-1 92-12 93 11 0 9-27 41-80 96C228-469 138-318 58-193 23-137 3-101 3-81" id="F"/><path fill="#333" d="M371-533c189 0 256 55 239 237-9 91-67 138-157 205C374-33 301-7 236-7 155-7 13-82 18-160c3-44 62-73 96-38 43 44 152 73 218 29 77-51 166-125 156-169 2-44-67-63-119-62-47 1-108 1-155 3C87-393 13-429 1-531c11-87 101-150 165-187 90-52 160-96 290-87 34 2 118 78 115 115-3 35-23 38-55 45-15 4-26-4-33-24-37-64-116-1-164 12-41 11-154 77-154 113 0 15 14 22 41 22 45 0 127-11 165-11" id="G"/><path fill="#333" d="M330-158c82-22 193-18 286-31 38 11 58 81 24 113-25 24-71 25-116 25-135 0-238 34-358 47C61 7 4-52 15-159c12-113 37-213 32-340-2-59 2-121-2-178-2-44 35-62 81-61 104-31 222-52 345-64 68-7 103 34 111 94 2 12-3 22-9 31-33 14-62 15-103 16-100 2-196 10-270 40h-8c-18 23-11 79-15 106-1 13 5 22 16 25 82-10 176-25 264-12 44 7 78 26 71 72-7 49-76 30-125 30-78 0-138 22-210 29-24 1-35 28-36 52-2 41-10 83-8 126-19 84 122 51 181 35" id="H"/><path fill="#333" d="M593-790c58 0 99 54 77 117-5 13-15 16-35 14-70-7-152-3-229 7-31 20-24 81-26 127-4 138-16 277-16 422 0 32 4 70-21 83-26 36-88 7-103-20 1-182 10-346 21-521 2-27 11-81-18-84-73-7-138 11-206 3-20-18-39-18-32-51-3-78 74-91 145-91 129 0 251 6 369-8 25-3 49 2 74 2" id="I"/><g id="b"><use transform="matrix(0.022222222222222223,0,0,0.022222222222222223,0,0)" xlink:href="#F"/><use transform="matrix(0.022222222222222223,0,0,0.022222222222222223,14.844444444444445,0)" xlink:href="#G"/><use transform="matrix(0.022222222222222223,0,0,0.022222222222222223,28.866666666666667,0)" xlink:href="#H"/><use transform="matrix(0.022222222222222223,0,0,0.022222222222222223,43.66666666666667,0)" xlink:href="#I"/></g><path fill="#24292e" d="M371-533c189 0 256 55 239 237-9 91-67 138-157 205C374-33 301-7 236-7 155-7 13-82 18-160c3-44 62-73 96-38 43 44 152 73 218 29 77-51 166-125 156-169 2-44-67-63-119-62-47 1-108 1-155 3C87-393 13-429 1-531c11-87 101-150 165-187 90-52 160-96 290-87 34 2 118 78 115 115-3 35-23 38-55 45-15 4-26-4-33-24-37-64-116-1-164 12-41 11-154 77-154 113 0 15 14 22 41 22 45 0 127-11 165-11" id="J"/><path fill="#24292e" d="M583 1c26 5 52-17 51-41 24-60-22-103-43-144-74-69-132-138-184-228-37-64 44-88 81-120 65-56 138-104 195-168 35-39 5-108-40-113-66 17-104 68-150 105-81 65-158 127-245 187-18 12-48 33-70 13-6-6-8-14-7-23 3-63 18-122 28-181-3-53-39-88-92-91-82 12-51 140-71 216 1 133-13 257-20 381-3 58-27 167 27 193 35 29 78-2 98-20 30-59 16-164 24-251 3-31 38-61 73-59 78 41 118 121 174 184 38 44 71 96 112 139 15 15 32 34 59 21" id="K"/><path fill="#24292e" d="M292-638c-67 2-113 14-176 21-81 9-112-68-58-103 132-46 304-52 470-66l65 5c50 52 43 111-50 111-45 0-75 15-112 18-18 16-19 83-24 152-7 108-21 214-33 322-5 46 36 20 67 20 54 0 81-10 139-16 43 25 50 62 23 110-151 29-311 50-490 79C58 24-8 22 3-44c14-83 161-45 224-90 22-16 24-69 29-107 17-126 33-258 36-397" id="L"/><path fill="#24292e" d="M23-677c-68-88 127-122 212-122 113 0 253 24 291 82 92 144-48 310-153 365-52 27-102 48-161 69-56 20-53 15-58 80-4 49-8 103-13 153-3 31-19 46-43 46-44 0-65-28-63-81 5-162 8-330 16-486 3-53-4-75-28-106zm415 73c0-44-44-66-132-66-78 0-124 8-135 26-10 16-14 89-14 218 0 44 22 39 57 25 83-34 224-115 224-203" id="M"/><g id="c"><use transform="matrix(0.02266666666666666,0,0,0.02266666666666666,0,0)" xlink:href="#q"/><use transform="matrix(0.02266666666666666,0,0,0.02266666666666666,18.20133333333333,0)" xlink:href="#r"/><use transform="matrix(0.02266666666666666,0,0,0.02266666666666666,32.005333333333326,0)" xlink:href="#s"/><use transform="matrix(0.02266666666666666,0,0,0.02266666666666666,49.77599999999999,0)" xlink:href="#t"/><use transform="matrix(0.02266666666666666,0,0,0.02266666666666666,60.56533333333332,0)" xlink:href="#u"/><use transform="matrix(0.02266666666666666,0,0,0.02266666666666666,75.66133333333332,0)" xlink:href="#v"/><use transform="matrix(0.02266666666666666,0,0,0.02266666666666666,90.19066666666664,0)" xlink:href="#w"/><use transform="matrix(0.02266666666666666,0,0,0.02266666666666666,104.56133333333331,0)" xlink:href="#q"/><use transform="matrix(0.02266666666666666,0,0,0.02266666666666666,122.76266666666663,0)" xlink:href="#x"/><use transform="matrix(0.02266666666666666,0,0,0.02266666666666666,134.9573333333333,0)" xlink:href="#y"/><use transform="matrix(0.02266666666666666,0,0,0.02266666666666666,150.30266666666662,0)" xlink:href="#v"/><use transform="matrix(0.02266666666666666,0,0,0.02266666666666666,164.83199999999997,0)" xlink:href="#z"/><use transform="matrix(0.02266666666666666,0,0,0.02266666666666666,182.05866666666662,0)" xlink:href="#t"/><use transform="matrix(0.02266666666666666,0,0,0.02266666666666666,192.84799999999996,0)" xlink:href="#J"/><use transform="matrix(0.02266666666666666,0,0,0.02266666666666666,207.1506666666666,0)" xlink:href="#K"/><use transform="matrix(0.02266666666666666,0,0,0.02266666666666666,223.15333333333328,0)" xlink:href="#L"/><use transform="matrix(0.02266666666666666,0,0,0.02266666666666666,237.54666666666662,0)" xlink:href="#M"/><use transform="matrix(0.02266666666666666,0,0,0.02266666666666666,250.33066666666662,0)" xlink:href="#C"/><use transform="matrix(0.02266666666666666,0,0,0.02266666666666666,261.5279999999999,0)" xlink:href="#y"/><use transform="matrix(0.02266666666666666,0,0,0.02266666666666666,275.39999999999986,0)" xlink:href="#D"/><use transform="matrix(0.02266666666666666,0,0,0.02266666666666666,288.3199999999998,0)" xlink:href="#E"/></g><path fill="#333" d="M147 0v-137l681-806H187v-139h844v137L349-139h719V0H147" id="N"/><path fill="#333" d="M745-142h380V0H143v-142h422v-798H246v-142h499v940zM545-1292v-192h200v192H545" id="O"/><path fill="#333" d="M698-1104c312 3 392 244 392 558 0 315-82 566-392 566-169 0-277-65-331-184h-5c8 188 2 394 4 589H185V-858c0-76-1-156-6-224h175c6 52 9 120 10 178h4c58-122 150-202 330-200zm-49 991c225 0 255-203 255-433 0-225-32-419-253-419-236 0-285 192-285 441 0 237 53 411 283 411" id="P"/><path fill="#333" d="M736-142h380V0H134v-142h422v-1200H267v-142h469v1342" id="Q"/><path fill="#333" d="M873-819c-18-114-119-146-250-146-163 0-245 50-245 151 0 151 170 148 294 185 182 54 388 94 388 320 0 240-189 325-439 329-245 4-410-69-454-268l159-31c24 133 136 168 295 165 144-2 270-31 270-171 0-164-195-160-331-202-167-52-350-87-350-299 0-218 173-315 413-313 220 2 373 77 412 260" id="R"/><path fill="#333" d="M682 16c-209 0-323-80-324-285v-671H190v-142h170l58-282h120v282h432v142H538v652c2 114 60 155 182 155 106 0 209-16 297-34v137C921-4 806 16 682 16" id="S"/><g id="d"><use transform="matrix(0.010850694444444444,0,0,0.010850694444444444,0,0)" xlink:href="#N"/><use transform="matrix(0.010850694444444444,0,0,0.010850694444444444,13.335503472222221,0)" xlink:href="#O"/><use transform="matrix(0.010850694444444444,0,0,0.010850694444444444,26.671006944444443,0)" xlink:href="#O"/><use transform="matrix(0.010850694444444444,0,0,0.010850694444444444,40.006510416666664,0)" xlink:href="#P"/><use transform="matrix(0.010850694444444444,0,0,0.010850694444444444,53.342013888888886,0)" xlink:href="#Q"/><use transform="matrix(0.010850694444444444,0,0,0.010850694444444444,66.67751736111111,0)" xlink:href="#O"/><use transform="matrix(0.010850694444444444,0,0,0.010850694444444444,80.01302083333334,0)" xlink:href="#R"/><use transform="matrix(0.010850694444444444,0,0,0.010850694444444444,93.34852430555557,0)" xlink:href="#S"/></g><path fill="#333" d="M617-1102c355 0 481 238 477 599H322c5 222 84 388 301 388 144 0 244-59 284-166l158 45C1002-72 854 20 623 20c-342 0-490-220-490-568 0-346 151-554 484-554zm291 461c-18-192-90-328-289-328-194 0-287 128-295 328h584" id="T"/><path fill="#333" d="M839-1102c70 0 148 7 206 17v167c-112-18-268-36-363 15-129 69-208 203-208 395V0H294c-10-367 32-789-52-1082h171c21 75 41 161 48 250h5c67-152 152-270 373-270" id="U"/><path fill="#333" d="M715 0H502L69-1082h202c94 253 197 500 285 758 19 57 36 126 52 183 96-335 234-626 350-941h201" id="V"/><path fill="#333" d="M496 0v-299h235V0H496" id="W"/><path fill="#333" d="M648-963c-190 6-283 138-283 336V0H185v-1484h181c-2 197 6 404-9 587h3c62-120 159-205 339-205 242 0 351 135 350 381V0H868v-695c1-168-57-273-220-268" id="X"/><path fill="#333" d="M114 20l821-1504h178L296 20H114" id="Y"/><g id="e"><use transform="matrix(0.010850694444444444,0,0,0.010850694444444444,0,0)" xlink:href="#R"/><use transform="matrix(0.010850694444444444,0,0,0.010850694444444444,13.335503472222221,0)" xlink:href="#T"/><use transform="matrix(0.010850694444444444,0,0,0.010850694444444444,26.671006944444443,0)" xlink:href="#U"/><use transform="matrix(0.010850694444444444,0,0,0.010850694444444444,40.006510416666664,0)" xlink:href="#V"/><use transform="matrix(0.010850694444444444,0,0,0.010850694444444444,53.342013888888886,0)" xlink:href="#T"/><use transform="matrix(0.010850694444444444,0,0,0.010850694444444444,66.67751736111111,0)" xlink:href="#U"/><use transform="matrix(0.010850694444444444,0,0,0.010850694444444444,80.01302083333334,0)" xlink:href="#W"/><use transform="matrix(0.010850694444444444,0,0,0.010850694444444444,93.34852430555557,0)" xlink:href="#X"/><use transform="matrix(0.010850694444444444,0,0,0.010850694444444444,106.6840277777778,0)" xlink:href="#Y"/><use transform="matrix(0.010850694444444444,0,0,0.010850694444444444,120.01953125000003,0)" xlink:href="#N"/><use transform="matrix(0.010850694444444444,0,0,0.010850694444444444,133.35503472222226,0)" xlink:href="#R"/><use transform="matrix(0.010850694444444444,0,0,0.010850694444444444,146.69053819444449,0)" xlink:href="#T"/><use transform="matrix(0.010850694444444444,0,0,0.010850694444444444,160.0260416666667,0)" xlink:href="#S"/></g><path fill="#24292e" d="M682 16c-209 0-323-80-324-285v-671H190v-142h170l58-282h120v282h432v142H538v652c2 114 60 155 182 155 106 0 209-16 297-34v137C921-4 806 16 682 16" id="Z"/><path fill="#24292e" d="M168 279c222 39 310-114 368-290L66-1082h192c120 299 249 590 362 896 115-301 235-597 351-896h190L705 0c-65 164-130 320-275 396-67 36-177 35-262 18V279" id="aa"/><path fill="#24292e" d="M698-1104c312 3 392 244 392 558 0 315-82 566-392 566-169 0-277-65-331-184h-5c8 188 2 394 4 589H185V-858c0-76-1-156-6-224h175c6 52 9 120 10 178h4c58-122 150-202 330-200zm-49 991c225 0 255-203 255-433 0-225-32-419-253-419-236 0-285 192-285 441 0 237 53 411 283 411" id="ab"/><path fill="#24292e" d="M617-1102c355 0 481 238 477 599H322c5 222 84 388 301 388 144 0 244-59 284-166l158 45C1002-72 854 20 623 20c-342 0-490-220-490-568 0-346 151-554 484-554zm291 461c-18-192-90-328-289-328-194 0-287 128-295 328h584" id="ac"/><path fill="#24292e" d="M865-914c-3-187-2-380-2-570h180v1261c0 76 1 155 6 223H877c-8-49-9-116-10-174h-5C801-44 708 26 530 26c-135 0-234-46-297-139s-95-232-95-419c0-377 131-566 392-566 176 0 271 63 335 184zm-286-51c-222 0-255 197-255 427 0 229 31 425 253 425 237 0 286-195 286-441 0-238-52-411-284-411" id="ad"/><path fill="#24292e" d="M839-1335c-182-6-269 67-259 253h491v142H580V0H400v-940H138v-142h262c-15-293 132-408 418-402 94 2 200 7 281 21v145c-75-10-177-14-260-17" id="ae"/><g id="f"><use transform="matrix(0.0078125,0,0,0.0078125,0,0)" xlink:href="#Z"/><use transform="matrix(0.0078125,0,0,0.0078125,9.6015625,0)" xlink:href="#aa"/><use transform="matrix(0.0078125,0,0,0.0078125,19.203125,0)" xlink:href="#ab"/><use transform="matrix(0.0078125,0,0,0.0078125,28.8046875,0)" xlink:href="#ac"/><use transform="matrix(0.0078125,0,0,0.0078125,38.40625,0)" xlink:href="#ad"/><use transform="matrix(0.0078125,0,0,0.0078125,48.0078125,0)" xlink:href="#ac"/><use transform="matrix(0.0078125,0,0,0.0078125,57.609375,0)" xlink:href="#ae"/></g><path fill="#24292e" d="M873-819c-18-114-119-146-250-146-163 0-245 50-245 151 0 151 170 148 294 185 182 54 388 94 388 320 0 240-189 325-439 329-245 4-410-69-454-268l159-31c24 133 136 168 295 165 144-2 270-31 270-171 0-164-195-160-331-202-167-52-350-87-350-299 0-218 173-315 413-313 220 2 373 77 412 260" id="af"/><path fill="#24292e" d="M839-1102c70 0 148 7 206 17v167c-112-18-268-36-363 15-129 69-208 203-208 395V0H294c-10-367 32-789-52-1082h171c21 75 41 161 48 250h5c67-152 152-270 373-270" id="ag"/><path fill="#24292e" d="M528 20c-247 0-343-132-343-381v-721h180v686c-4 177 45 284 224 277 194-8 279-136 279-336v-627h181c3 360-6 732 6 1082H885c-4-54-7-126-8-185h-3C809-64 714 20 528 20" id="ah"/><path fill="#24292e" d="M631 20c-350 0-501-215-501-562 0-355 162-560 502-560 250 0 399 118 446 323l-192 14c-23-124-109-196-262-196-242 0-305 171-305 415 1 245 61 427 304 427 151 0 248-77 267-215l190 12C1039-107 883 20 631 20" id="ai"/><g id="g"><use transform="matrix(0.0078125,0,0,0.0078125,0,0)" xlink:href="#af"/><use transform="matrix(0.0078125,0,0,0.0078125,9.6015625,0)" xlink:href="#Z"/><use transform="matrix(0.0078125,0,0,0.0078125,19.203125,0)" xlink:href="#ag"/><use transform="matrix(0.0078125,0,0,0.0078125,28.8046875,0)" xlink:href="#ah"/><use transform="matrix(0.0078125,0,0,0.0078125,38.40625,0)" xlink:href="#ai"/><use transform="matrix(0.0078125,0,0,0.0078125,48.0078125,0)" xlink:href="#Z"/></g><path fill="#24292e" d="M147 0v-137l681-806H187v-139h844v137L349-139h719V0H147" id="aj"/><g id="h"><use transform="matrix(0.0078125,0,0,0.0078125,0,0)" xlink:href="#aj"/><use transform="matrix(0.0078125,0,0,0.0078125,9.6015625,0)" xlink:href="#af"/><use transform="matrix(0.0078125,0,0,0.0078125,19.203125,0)" xlink:href="#ac"/><use transform="matrix(0.0078125,0,0,0.0078125,28.8046875,0)" xlink:href="#Z"/></g><path fill="#24292e" d="M677 91c1 136 41 195 171 195h213v139H796c-186-8-294-116-294-303v-351c-3-164-120-222-275-232v-137c155-10 275-69 275-231v-352c6-189 106-303 294-303h265v139H848c-126-3-171 67-171 195v346c-5 158-108 234-231 274 128 36 231 115 231 274V91" id="ak"/><use transform="matrix(0.0078125,0,0,0.0078125,0,0)" xlink:href="#ak" id="i"/><path fill="#24292e" d="M745-142h380V0H143v-142h422v-798H246v-142h499v940zM545-1292v-192h200v192H545" id="al"/><g id="k"><use transform="matrix(0.0078125,0,0,0.0078125,0,0)" xlink:href="#ad"/><use transform="matrix(0.0078125,0,0,0.0078125,9.6015625,0)" xlink:href="#al"/><use transform="matrix(0.0078125,0,0,0.0078125,19.203125,0)" xlink:href="#ai"/><use transform="matrix(0.0078125,0,0,0.0078125,28.8046875,0)" xlink:href="#Z"/></g><path fill="#24292e" d="M671-1188l264-103 45 132-282 73 185 250-119 72-150-258-156 256-119-72 189-248-280-73 45-134 267 107-12-297h136" id="am"/><path fill="#24292e" d="M496-783v-299h235v299H496zM352 363l169-662h265L475 363H352" id="an"/><g id="l"><use transform="matrix(0.0078125,0,0,0.0078125,0,0)" xlink:href="#am"/><use transform="matrix(0.0078125,0,0,0.0078125,9.6015625,0)" xlink:href="#ad"/><use transform="matrix(0.0078125,0,0,0.0078125,19.203125,0)" xlink:href="#al"/><use transform="matrix(0.0078125,0,0,0.0078125,28.8046875,0)" xlink:href="#ai"/><use transform="matrix(0.0078125,0,0,0.0078125,38.40625,0)" xlink:href="#Z"/><use transform="matrix(0.0078125,0,0,0.0078125,48.0078125,0)" xlink:href="#an"/></g><path fill="#24292e" d="M914 0L548-499l-132 98V0H236v-1484h180v927l475-525h211L663-617 1125 0H914" id="ao"/><path fill="#24292e" d="M736-142h380V0H134v-142h422v-1200H267v-142h469v1342" id="ap"/><g id="m"><use transform="matrix(0.0078125,0,0,0.0078125,0,0)" xlink:href="#aj"/><use transform="matrix(0.0078125,0,0,0.0078125,9.6015625,0)" xlink:href="#af"/><use transform="matrix(0.0078125,0,0,0.0078125,19.203125,0)" xlink:href="#ao"/><use transform="matrix(0.0078125,0,0,0.0078125,28.8046875,0)" xlink:href="#al"/><use transform="matrix(0.0078125,0,0,0.0078125,38.40625,0)" xlink:href="#ab"/><use transform="matrix(0.0078125,0,0,0.0078125,48.0078125,0)" xlink:href="#ap"/><use transform="matrix(0.0078125,0,0,0.0078125,57.609375,0)" xlink:href="#al"/><use transform="matrix(0.0078125,0,0,0.0078125,67.2109375,0)" xlink:href="#af"/><use transform="matrix(0.0078125,0,0,0.0078125,76.8125,0)" xlink:href="#Z"/></g><g id="n"><use transform="matrix(0.0078125,0,0,0.0078125,0,0)" xlink:href="#am"/><use transform="matrix(0.0078125,0,0,0.0078125,9.6015625,0)" xlink:href="#aj"/><use transform="matrix(0.0078125,0,0,0.0078125,19.203125,0)" xlink:href="#af"/><use transform="matrix(0.0078125,0,0,0.0078125,28.8046875,0)" xlink:href="#ap"/><use transform="matrix(0.0078125,0,0,0.0078125,38.40625,0)" xlink:href="#an"/></g><path fill="#24292e" d="M726 122c-7 187-108 303-294 303H167V286h213c129-2 172-59 172-195v-347c5-160 106-236 230-276-125-36-230-116-230-272v-346c2-128-45-195-172-195H167v-139h265c187 7 294 114 294 303v352c4 162 120 221 275 231v137c-155 10-275 68-275 232v351" id="aq"/><use transform="matrix(0.0078125,0,0,0.0078125,0,0)" xlink:href="#aq" id="o"/><g id="p"><use transform="matrix(0.0078125,0,0,0.0078125,0,0)" xlink:href="#aj"/><use transform="matrix(0.0078125,0,0,0.0078125,9.6015625,0)" xlink:href="#af"/><use transform="matrix(0.0078125,0,0,0.0078125,19.203125,0)" xlink:href="#ac"/><use transform="matrix(0.0078125,0,0,0.0078125,28.8046875,0)" xlink:href="#Z"/><use transform="matrix(0.0078125,0,0,0.0078125,38.40625,0)" xlink:href="#an"/></g></defs></g></svg>