<svg height="120pt" viewBox="-2 0 420 420.07335" width="120pt" xmlns="http://www.w3.org/2000/svg"><path d="m166.6875 59.886719c1.414062-13.769531-8.605469-26.078125-22.375-27.492188-7.992188-.820312-15.417969 2.285157-20.582031 7.664063 1.097656-2.324219 1.910156-4.824219 2.1875-7.527344 1.3125-12.8125-8.007813-24.261719-20.816407-25.574219-12.8125-1.316406-24.261718 8.003907-25.578124 20.816407-.234376 2.265624-.027344 4.453124.367187 6.582031-2.625-1.304688-5.484375-2.238281-8.574219-2.554688-13.769531-1.414062-26.078125 8.605469-27.492187 22.375-1.414063 13.773438 8.605469 26.082031 22.378906 27.496094 13.769531 1.410156 59.21875-.820313 72.992187.59375 13.769532 1.414063 26.078126-8.605469 27.492188-22.378906zm0 0" fill="#ee5281"/><path d="m141.816406 89.226562c-1.101562 0-2.207031-.058593-3.320312-.171874-6.488282-.667969-21.355469-.460938-35.726563-.257813-15.414062.203125-29.988281.410156-37.261719-.332031-8.480468-.871094-16.105468-4.988282-21.484374-11.59375-5.382813-6.609375-7.859376-14.914063-6.996094-23.390625 1.800781-17.496094 17.339844-30.3125 34.988281-28.472657.324219.035157.652344.070313.976563.117188 1.207031-7.222656 4.960937-13.683594 10.695312-18.351562 6.246094-5.082032 14.109375-7.445313 22.101562-6.609376 8.011719.820313 15.226563 4.714844 20.304688 10.957032 3.707031 4.554687 5.960938 9.957031 6.585938 15.65625 3.941406-1.191406 8.113281-1.609375 12.320312-1.175782 8.480469.871094 16.109375 4.988282 21.488281 11.59375 5.378907 6.605469 7.859375 14.914063 6.992188 23.386719-.875 8.476563-4.992188 16.101563-11.601563 21.484375-5.734375 4.671875-12.761718 7.160156-20.0625 7.160156zm-18.90625-14.28125c7.089844 0 13.085938.128907 16.984375.53125 4.8125.480469 9.585938-.921874 13.367188-4 3.78125-3.078124 6.140625-7.441406 6.632812-12.285156.5-4.847656-.917969-9.597656-3.992187-13.375-3.082032-3.78125-7.4375-6.132812-12.292969-6.632812-5.554687-.546875-10.992187 1.480468-14.953125 5.605468-2.328125 2.421876-6.0625 2.789063-8.800781.890626-2.753907-1.898438-3.726563-5.515626-2.300781-8.539063.886718-1.867187 1.394531-3.597656 1.566406-5.296875.453125-4.390625-.832032-8.6875-3.613282-12.101562-2.777343-3.417969-6.726562-5.546876-11.105468-6-4.386719-.4375-8.679688.835937-12.09375 3.617187-3.421875 2.78125-5.546875 6.726563-5.992188 11.105469-.140625 1.351562-.046875 2.828125.285156 4.648437.464844 2.542969-.539062 5.132813-2.605468 6.691407-2.066406 1.5625-4.847656 1.808593-7.148438.664062-2.113281-1.054688-4.148437-1.667969-6.226562-1.882812-10.058594-1.015626-18.980469 6.28125-20.007813 16.285156-.5 4.847656.921875 9.597656 3.996094 13.375 3.078125 3.78125 7.4375 6.136718 12.292969 6.636718 6.480468.660157 21.320312.457032 35.679687.257813 7.171875-.097656 14.167969-.195313 20.328125-.195313zm0 0"/><path d="m279.929688 174.3125c0-12.5-13.652344-27.304688-29.996094-26.773438h-57.578125c0-44.300781-35.914063-80.214843-80.210938-80.214843-43.457031 0-78.75 34.578125-80.085937 77.710937-.011719-.84375-.128906-1.660156-.128906-2.507812v5.011718c0 3.632813.328124 7.175782.792968 10.679688 7.949219 89.542969 83.0625 159.777344 174.675782 159.777344 87.253906 0 161.378906-60.253906 174.933593-143.679688h-102.402343zm0 0" fill="#feda38"/><path d="m207.394531 324.820312c-95.058593 0-173.070312-71.363281-181.472656-166-.546875-4.070312-.820313-7.75-.820313-11.28125v-5.015624c0-.796876.136719-1.558594.390626-2.269532 3.683593-45.082031 40.910156-79.753906 86.652343-79.753906 45.699219 0 83.277344 35.394531 86.773438 80.210938h51.019531c9.226562-.261719 18.789062 3.558593 26.0625 10.601562 4.824219 4.667969 8.253906 10.402344 9.8125 16.175781h96.519531c2 0 3.898438.878907 5.199219 2.402344 1.300781 1.519531 1.863281 3.542969 1.539062 5.515625-14.066406 86.578125-90.472656 149.414062-181.675781 149.414062zm-168.636719-178.472656v1.191406c0 2.917969.234376 6.019532.734376 9.773438 7.796874 87.839844 79.972656 153.851562 167.90625 153.851562 81.660156 0 150.480468-54.207031 166.707031-130.027343h-94.175781c-3.773438 0-6.824219-3.054688-6.824219-6.824219 0-4.195312-2.527344-9.246094-6.601563-13.1875-4.632812-4.484375-10.320312-7-16.347656-6.765625l-57.796875.003906c-3.773437 0-6.828125-3.054687-6.828125-6.824219 0-40.46875-32.917969-73.386718-73.386719-73.386718-39.847656 0-72.03125 31.226562-73.261719 71.089844-.011718.378906-.058593.746093-.125 1.105468zm247.996094 27.964844h.070313zm0 0"/><path d="m197.371094 249.621094h-10.027344c-3.773438 0-6.828125-3.058594-6.828125-6.828125s3.054687-6.828125 6.828125-6.828125h10.027344c3.773437 0 6.824218 3.058594 6.824218 6.828125s-3.050781 6.828125-6.824218 6.828125zm0 0"/><path d="m227.375 243.769531c-2.851562 0-5.511719-1.804687-6.472656-4.65625-1.199219-3.574219.726562-7.445312 4.300781-8.644531 45.273437-15.203125 47.886719-56.09375 47.90625-56.503906.191406-3.769532 3.699219-6.746094 7.167969-6.46875 3.765625.195312 6.664062 3.402344 6.472656 7.167968-.105469 2.054688-3.207031 50.617188-57.203125 68.746094-.71875.242188-1.449219.359375-2.171875.359375zm0 0"/><path d="m123.347656 138.691406c0 6.1875-5.015625 11.203125-11.203125 11.203125s-11.207031-5.015625-11.207031-11.203125 5.019531-11.207031 11.207031-11.207031 11.203125 5.019531 11.203125 11.207031zm0 0"/><path d="m6.863281 179.433594c-1.746093 0-3.496093-.667969-4.828125-2-2.664062-2.667969-2.664062-6.988282 0-9.652344l15.226563-15.226562-15.226563-15.226563c-2.664062-2.667969-2.664062-6.988281 0-9.65625 2.667969-2.664063 6.988282-2.664063 9.652344 0l20.054688 20.054687c2.664062 2.667969 2.664062 6.988282 0 9.652344l-20.054688 20.054688c-1.332031 1.332031-3.078125 2-4.824219 2zm0 0"/><path d="m198.007812 420.074219h-30.71875c-3.773437 0-6.828124-3.058594-6.828124-6.828125 0-3.769532 3.054687-6.824219 6.828124-6.824219h23.894532v-87.070313c0-3.769531 3.050781-6.824218 6.824218-6.824218 3.773438 0 6.828126 3.054687 6.828126 6.824218v93.894532c0 3.769531-3.054688 6.828125-6.828126 6.828125zm0 0"/><path d="m409.355469 370.257812c0 22.964844-18.621094 41.585938-41.585938 41.585938-22.96875 0-41.589843-18.617188-41.589843-41.585938s18.621093-65.347656 41.589843-65.347656c22.964844 0 41.585938 42.378906 41.585938 65.347656zm0 0" fill="#ffdd95"/><path d="m367.769531 418.671875c-26.695312 0-48.414062-21.71875-48.414062-48.414063 0-25.351562 19.96875-72.171874 48.414062-72.171874 28.445313 0 48.414063 46.824218 48.414063 72.171874 0 26.695313-21.722656 48.414063-48.414063 48.414063zm0-106.9375c-17.242187 0-34.757812 37.542969-34.757812 58.519531 0 19.167969 15.59375 34.761719 34.757812 34.761719 19.164063 0 34.757813-15.59375 34.757813-34.761719 0-20.976562-17.519532-58.519531-34.757813-58.519531zm0 0"/><path d="m368.675781 392.765625c-3.773437 0-6.828125-3.054687-6.828125-6.824219 0-3.769531 3.054688-6.828125 6.828125-6.828125 3.765625 0 6.828125-3.0625 6.828125-6.828125 0-3.769531 3.050782-6.824218 6.824219-6.824218s6.828125 3.054687 6.828125 6.824218c0 11.292969-9.1875 20.480469-20.480469 20.480469zm0 0"/></svg>