<svg height="490pt" viewBox="-10 0 490 490.66667" width="490pt" xmlns="http://www.w3.org/2000/svg"><g fill="#4db6ac"><path d="m363 192c0 17.8125-48.703125 42.667969-128 42.667969s-128-24.855469-128-42.667969v-29.910156c27.882812 19.585937 78.933594 29.910156 128 29.910156s100.117188-10.324219 128-29.910156zm0 0"/><path d="m363 128c0 17.8125-48.703125 42.667969-128 42.667969s-128-24.855469-128-42.667969v-29.910156c27.882812 19.585937 78.933594 29.910156 128 29.910156s100.117188-10.324219 128-29.910156zm0 0"/><path d="m363 64c0-23.5625-57.308594-42.667969-128-42.667969s-128 19.105469-128 42.667969 57.308594 42.667969 128 42.667969 128-19.105469 128-42.667969zm0 0"/><path d="m235 298.667969c-75.433594 0-128-22.488281-128-42.667969v-29.910156c27.882812 19.585937 78.933594 29.910156 128 29.910156s100.117188-10.324219 128-29.910156v29.910156c0 20.179688-52.566406 42.667969-128 42.667969zm0 0"/></g><path d="m235 128c-72.40625 0-149.332031-22.441406-149.332031-64s76.925781-64 149.332031-64 149.332031 22.441406 149.332031 64-76.925781 64-149.332031 64zm0-106.667969c-79.296875 0-128 24.855469-128 42.667969s48.703125 42.667969 128 42.667969 128-24.855469 128-42.667969-48.703125-42.667969-128-42.667969zm0 0"/><path d="m235 192c-72.40625 0-149.332031-22.441406-149.332031-64 0-5.886719 4.777343-10.667969 10.664062-10.667969 5.890625 0 10.667969 4.78125 10.667969 10.667969 0 17.8125 48.703125 42.667969 128 42.667969s128-24.855469 128-42.667969c0-5.886719 4.777344-10.667969 10.667969-10.667969 5.886719 0 10.664062 4.78125 10.664062 10.667969 0 41.558594-76.925781 64-149.332031 64zm0 0"/><path d="m235 256c-72.40625 0-149.332031-22.441406-149.332031-64 0-5.886719 4.777343-10.667969 10.664062-10.667969 5.890625 0 10.667969 4.78125 10.667969 10.667969 0 17.8125 48.703125 42.667969 128 42.667969s128-24.855469 128-42.667969c0-5.886719 4.777344-10.667969 10.667969-10.667969 5.886719 0 10.664062 4.78125 10.664062 10.667969 0 41.558594-76.925781 64-149.332031 64zm0 0"/><path d="m235 320c-74.21875 0-149.332031-21.972656-149.332031-64v-192c0-5.886719 4.777343-10.667969 10.664062-10.667969 5.890625 0 10.667969 4.78125 10.667969 10.667969v192c0 20.179688 52.566406 42.667969 128 42.667969s128-22.488281 128-42.667969v-192c0-5.886719 4.777344-10.667969 10.667969-10.667969 5.886719 0 10.664062 4.78125 10.664062 10.667969v192c0 42.027344-75.113281 64-149.332031 64zm0 0"/><path d="m234.980469 448c-22.679688 0-40.984375-12.757812-42.605469-29.632812-.554688-5.867188 3.734375-11.09375 9.601562-11.648438 5.992188-.402344 11.070313 3.757812 11.625 9.601562.429688 4.308594 8.746094 10.324219 21.355469 10.324219 12.863281.023438 21.375-6.398437 21.375-10.644531 0-4.609375-13.503906-9.621094-22.632812-10.753906-4.222657-.511719-41.367188-5.820313-41.367188-31.914063 0-17.941406 18.753907-32 42.6875-32 22.679688 0 40.984375 12.738281 42.605469 29.613281.554688 5.867188-3.734375 11.09375-9.601562 11.648438-5.910157.316406-11.070313-3.757812-11.625-9.601562-.429688-4.308594-8.746094-10.304688-21.355469-10.304688-12.863281-.019531-21.375 6.402344-21.375 10.644531 0 4.628907 13.523437 9.621094 22.65625 10.753907 4.242187.511718 41.34375 5.867187 41.34375 31.914062 0 17.941406-18.753907 32-42.6875 32zm0 0"/><path d="m352.332031 448h-21.332031c-17.644531 0-32-14.355469-32-32v-42.667969c0-17.640625 14.355469-32 32-32h21.332031c17.644531 0 32 14.359375 32 32v42.667969c0 17.644531-14.355469 32-32 32zm-21.332031-85.332031c-5.886719 0-10.667969 4.796875-10.667969 10.664062v42.667969c0 5.867188 4.78125 10.667969 10.667969 10.667969h21.332031c5.890625 0 10.667969-4.800781 10.667969-10.667969v-42.667969c0-5.867187-4.777344-10.664062-10.667969-10.664062zm0 0"/><path d="m459 448h-42.667969c-5.886719 0-10.664062-4.777344-10.664062-10.667969v-85.332031c0-5.886719 4.777343-10.667969 10.664062-10.667969 5.890625 0 10.667969 4.78125 10.667969 10.667969v74.667969h32c5.886719 0 10.667969 4.777343 10.667969 10.664062 0 5.890625-4.78125 10.667969-10.667969 10.667969zm0 0"/><path d="m373.667969 448c-2.730469 0-5.460938-1.046875-7.554688-3.113281l-21.332031-21.335938c-4.160156-4.160156-4.160156-10.921875 0-15.082031s10.921875-4.160156 15.082031 0l21.335938 21.332031c4.15625 4.160157 4.15625 10.925781 0 15.085938-2.070313 2.066406-4.800781 3.113281-7.53125 3.113281zm0 0"/><path d="m117.667969 490.667969c-1.601563 0-3.222657-.363281-4.757813-1.132813-5.269531-2.644531-7.402344-9.042968-4.78125-14.3125l42.667969-85.335937c2.644531-5.269531 9.023437-7.421875 14.316406-4.777344 5.269531 2.644531 7.402344 9.046875 4.777344 14.316406l-42.667969 85.332031c-1.898437 3.734376-5.652344 5.910157-9.554687 5.910157zm0 0"/><path d="m139 448c-3.925781 0-7.679688-2.175781-9.558594-5.886719l-21.332031-42.667969c-2.644531-5.269531-.492187-11.667968 4.777344-14.316406 5.269531-2.644531 11.648437-.488281 14.316406 4.78125l21.332031 42.664063c2.644532 5.269531.492188 11.671875-4.777344 14.316406-1.515624.746094-3.136718 1.109375-4.757812 1.109375zm0 0"/><path d="m75 448c-5.886719 0-10.667969-4.777344-10.667969-10.667969v-53.332031l-12.796875 17.066406c-4.011718 5.375-13.035156 5.375-17.070312 0l-12.796875-17.066406v53.332031c0 5.890625-4.78125 10.667969-10.667969 10.667969s-10.667969-4.777344-10.667969-10.667969v-85.332031c0-4.585938 2.945313-8.660156 7.296875-10.132812 4.375-1.367188 9.152344.042968 11.90625 3.734374l23.464844 31.292969 23.464844-31.292969c2.753906-3.691406 7.554687-5.078124 11.90625-3.734374 4.351562 1.472656 7.296875 5.546874 7.296875 10.132812v85.332031c0 5.890625-4.78125 10.667969-10.667969 10.667969zm0 0"/></svg>